<?xml version="1.0" encoding="UTF-8" standalone="no"?>
<!DOCTYPE svg PUBLIC "-//W3C//DTD SVG 1.1//EN"
 "http://www.w3.org/Graphics/SVG/1.1/DTD/svg11.dtd">
<!-- Generated by graphviz version 14.1.2 (20260124.0452)
 -->
<!-- Pages: 1 -->
<svg width="381pt" height="260pt"
 viewBox="0.00 0.00 381.00 260.00" xmlns="http://www.w3.org/2000/svg" xmlns:xlink="http://www.w3.org/1999/xlink">
<g id="graph0" class="graph" transform="scale(1 1) rotate(0) translate(4 256)">
<!-- def:local&#45;witness -->
<g id="node1" class="node">
<title>def:local&#45;witness</title>
<polygon fill="#b0eca3" stroke="green" stroke-width="1.8" points="87.25,-252 0,-252 0,-216 87.25,-216 87.25,-252"/>
<text xml:space="preserve" text-anchor="middle" x="43.62" y="-228.95" font-family="Times,serif" font-size="14.00">local&#45;witness</text>
</g>
<!-- def:initial&#45;cover -->
<g id="node2" class="node">
<title>def:initial&#45;cover</title>
<polygon fill="#b0eca3" stroke="green" stroke-width="1.8" points="128.62,-180 46.62,-180 46.62,-144 128.62,-144 128.62,-180"/>
<text xml:space="preserve" text-anchor="middle" x="87.62" y="-156.95" font-family="Times,serif" font-size="14.00">initial&#45;cover</text>
</g>
<!-- def:local&#45;witness&#45;&gt;def:initial&#45;cover -->
<g id="edge1" class="edge">
<title>def:local&#45;witness&#45;&gt;def:initial&#45;cover</title>
<path fill="none" stroke="black" stroke-dasharray="5,2" d="M54.73,-215.34C59.61,-207.57 65.45,-198.27 70.85,-189.69"/>
<polygon fill="black" stroke="black" points="76.03,-181.45 74.52,-192.31 74.02,-184.65 70.71,-189.91 70.71,-189.91 70.71,-189.91 74.02,-184.65 66.9,-187.52 76.03,-181.45"/>
</g>
<!-- thm:exists&#45;refinement -->
<g id="node3" class="node">
<title>thm:exists&#45;refinement</title>
<ellipse fill="none" stroke="green" stroke-width="1.8" cx="87.62" cy="-90" rx="75.41" ry="18"/>
<text xml:space="preserve" text-anchor="middle" x="87.62" y="-84.95" font-family="Times,serif" font-size="14.00">exists&#45;refinement</text>
</g>
<!-- def:initial&#45;cover&#45;&gt;thm:exists&#45;refinement -->
<g id="edge2" class="edge">
<title>def:initial&#45;cover&#45;&gt;thm:exists&#45;refinement</title>
<path fill="none" stroke="black" stroke-dasharray="5,2" d="M87.62,-143.34C87.62,-136.07 87.62,-127.47 87.62,-119.36"/>
<polygon fill="black" stroke="black" points="87.63,-109.63 92.13,-119.63 87.63,-113.42 87.63,-119.63 87.63,-119.63 87.63,-119.63 87.63,-113.42 83.13,-119.63 87.63,-109.63"/>
</g>
<!-- thm:exists&#45;sup&#45;reduction -->
<g id="node4" class="node">
<title>thm:exists&#45;sup&#45;reduction</title>
<ellipse fill="none" stroke="green" stroke-width="1.8" cx="181.62" cy="-18" rx="85.64" ry="18"/>
<text xml:space="preserve" text-anchor="middle" x="181.62" y="-12.95" font-family="Times,serif" font-size="14.00">exists&#45;sup&#45;reduction</text>
</g>
<!-- thm:exists&#45;refinement&#45;&gt;thm:exists&#45;sup&#45;reduction -->
<g id="edge3" class="edge">
<title>thm:exists&#45;refinement&#45;&gt;thm:exists&#45;sup&#45;reduction</title>
<path fill="none" stroke="black" stroke-dasharray="5,2" d="M110.38,-72.05C122.3,-63.18 137.08,-52.17 150.09,-42.48"/>
<polygon fill="black" stroke="black" points="157.78,-36.76 152.44,-46.34 154.74,-39.02 149.76,-42.73 149.76,-42.73 149.76,-42.73 154.74,-39.02 147.07,-39.12 157.78,-36.76"/>
</g>
<!-- def:spaced -->
<g id="node5" class="node">
<title>def:spaced</title>
<polygon fill="#b0eca3" stroke="green" stroke-width="1.8" points="159.62,-252 105.62,-252 105.62,-216 159.62,-216 159.62,-252"/>
<text xml:space="preserve" text-anchor="middle" x="132.62" y="-228.95" font-family="Times,serif" font-size="14.00">spaced</text>
</g>
<!-- def:spaced&#45;&gt;def:initial&#45;cover -->
<g id="edge4" class="edge">
<title>def:spaced&#45;&gt;def:initial&#45;cover</title>
<path fill="none" stroke="black" stroke-dasharray="5,2" d="M121.27,-215.34C116.28,-207.57 110.3,-198.27 104.78,-189.69"/>
<polygon fill="black" stroke="black" points="99.48,-181.44 108.67,-187.42 101.52,-184.62 104.89,-189.85 104.89,-189.85 104.89,-189.85 101.52,-184.62 101.1,-192.29 99.48,-181.44"/>
</g>
<!-- def:cover -->
<g id="node6" class="node">
<title>def:cover</title>
<polygon fill="#b0eca3" stroke="green" stroke-width="1.8" points="251.62,-180 197.62,-180 197.62,-144 251.62,-144 251.62,-180"/>
<text xml:space="preserve" text-anchor="middle" x="224.62" y="-156.95" font-family="Times,serif" font-size="14.00">cover</text>
</g>
<!-- def:cover&#45;&gt;thm:exists&#45;refinement -->
<g id="edge5" class="edge">
<title>def:cover&#45;&gt;thm:exists&#45;refinement</title>
<path fill="none" stroke="black" stroke-dasharray="5,2" d="M196.9,-146.83C177.37,-136.86 150.9,-123.33 128.89,-112.09"/>
<polygon fill="black" stroke="black" points="120.23,-107.66 131.18,-108.2 123.59,-109.38 129.13,-112.21 129.13,-112.21 129.13,-112.21 123.59,-109.38 127.08,-116.21 120.23,-107.66"/>
</g>
<!-- thm:sup&#45;reduction&#45;of&#45;cover -->
<g id="node7" class="node">
<title>thm:sup&#45;reduction&#45;of&#45;cover</title>
<ellipse fill="none" stroke="green" stroke-width="1.8" cx="276.62" cy="-90" rx="95.88" ry="18"/>
<text xml:space="preserve" text-anchor="middle" x="276.62" y="-84.95" font-family="Times,serif" font-size="14.00">sup&#45;reduction&#45;of&#45;cover</text>
</g>
<!-- def:cover&#45;&gt;thm:sup&#45;reduction&#45;of&#45;cover -->
<g id="edge6" class="edge">
<title>def:cover&#45;&gt;thm:sup&#45;reduction&#45;of&#45;cover</title>
<path fill="none" stroke="black" stroke-dasharray="5,2" d="M237.75,-143.34C243.58,-135.48 250.57,-126.07 257,-117.41"/>
<polygon fill="black" stroke="black" points="262.96,-109.39 260.61,-120.1 260.71,-112.43 257,-117.42 257,-117.42 257,-117.42 260.71,-112.43 253.39,-114.74 262.96,-109.39"/>
</g>
<!-- thm:sup&#45;reduction&#45;of&#45;cover&#45;&gt;thm:exists&#45;sup&#45;reduction -->
<g id="edge7" class="edge">
<title>thm:sup&#45;reduction&#45;of&#45;cover&#45;&gt;thm:exists&#45;sup&#45;reduction</title>
<path fill="none" stroke="black" stroke-dasharray="5,2" d="M253.14,-71.7C241.29,-62.97 226.74,-52.24 213.86,-42.75"/>
<polygon fill="black" stroke="black" points="205.82,-36.83 216.54,-39.14 208.86,-39.07 213.87,-42.76 213.87,-42.76 213.87,-42.76 208.86,-39.07 211.2,-46.38 205.82,-36.83"/>
</g>
</g>
</svg>
