<?xml version="1.0" encoding="UTF-8" standalone="no"?>
<!DOCTYPE svg PUBLIC "-//W3C//DTD SVG 1.1//EN"
 "http://www.w3.org/Graphics/SVG/1.1/DTD/svg11.dtd">
<!-- Generated by graphviz version 14.1.2 (20260124.0452)
 -->
<!-- Title: import_graph Pages: 1 -->
<svg width="706pt" height="548pt"
 viewBox="0.00 0.00 706.00 548.00" xmlns="http://www.w3.org/2000/svg" xmlns:xlink="http://www.w3.org/1999/xlink">
<g id="graph0" class="graph" transform="scale(1 1) rotate(0) translate(4 544)">
<title>import_graph</title>
<polygon fill="white" stroke="none" points="-4,4 -4,-544 701.75,-544 701.75,4 -4,4"/>
<!-- CombArg.OneDim.Assembly -->
<g id="node1" class="node">
<title>CombArg.OneDim.Assembly</title>
<ellipse fill="#e0e0e0" stroke="black" cx="200.76" cy="-234" rx="123" ry="18"/>
<text xml:space="preserve" text-anchor="middle" x="200.76" y="-228.95" font-family="Times,serif" font-size="14.00">CombArg.OneDim.Assembly</text>
</g>
<!-- CombArg.OneDim -->
<g id="node5" class="node">
<title>CombArg.OneDim</title>
<ellipse fill="#e0e0e0" stroke="black" cx="200.76" cy="-162" rx="83.08" ry="18"/>
<text xml:space="preserve" text-anchor="middle" x="200.76" y="-156.95" font-family="Times,serif" font-size="14.00">CombArg.OneDim</text>
</g>
<!-- CombArg.OneDim.Assembly&#45;&gt;CombArg.OneDim -->
<g id="edge4" class="edge">
<title>CombArg.OneDim.Assembly&#45;&gt;CombArg.OneDim</title>
<path fill="none" stroke="black" d="M200.76,-215.7C200.76,-208.41 200.76,-199.73 200.76,-191.54"/>
<polygon fill="black" stroke="black" points="204.26,-191.62 200.76,-181.62 197.26,-191.62 204.26,-191.62"/>
</g>
<!-- CombArg.Cover -->
<g id="node2" class="node">
<title>CombArg.Cover</title>
<ellipse fill="#e0e0e0" stroke="black" cx="99.76" cy="-306" rx="73.36" ry="18"/>
<text xml:space="preserve" text-anchor="middle" x="99.76" y="-300.95" font-family="Times,serif" font-size="14.00">CombArg.Cover</text>
</g>
<!-- CombArg.Cover&#45;&gt;CombArg.OneDim.Assembly -->
<g id="edge1" class="edge">
<title>CombArg.Cover&#45;&gt;CombArg.OneDim.Assembly</title>
<path fill="none" stroke="black" d="M123.44,-288.59C136.45,-279.57 152.8,-268.24 167.12,-258.32"/>
<polygon fill="black" stroke="black" points="168.7,-261.48 174.93,-252.9 164.72,-255.72 168.7,-261.48"/>
</g>
<!-- CombArg.OneDim.CoverConstruction -->
<g id="node3" class="node">
<title>CombArg.OneDim.CoverConstruction</title>
<ellipse fill="#e0e0e0" stroke="black" cx="155.76" cy="-378" rx="155.76" ry="18"/>
<text xml:space="preserve" text-anchor="middle" x="155.76" y="-372.95" font-family="Times,serif" font-size="14.00">CombArg.OneDim.CoverConstruction</text>
</g>
<!-- CombArg.OneDim.CoverConstruction&#45;&gt;CombArg.OneDim.Assembly -->
<g id="edge2" class="edge">
<title>CombArg.OneDim.CoverConstruction&#45;&gt;CombArg.OneDim.Assembly</title>
<path fill="none" stroke="black" d="M165.54,-359.8C170.97,-349.65 177.47,-336.4 181.76,-324 188.56,-304.35 193.39,-281.38 196.48,-263.69"/>
<polygon fill="black" stroke="black" points="199.92,-264.33 198.1,-253.9 193.02,-263.19 199.92,-264.33"/>
</g>
<!-- CombArg.OneDim.Induction -->
<g id="node4" class="node">
<title>CombArg.OneDim.Induction</title>
<ellipse fill="#e0e0e0" stroke="black" cx="438.76" cy="-306" rx="120.96" ry="18"/>
<text xml:space="preserve" text-anchor="middle" x="438.76" y="-300.95" font-family="Times,serif" font-size="14.00">CombArg.OneDim.Induction</text>
</g>
<!-- CombArg.OneDim.Induction&#45;&gt;CombArg.OneDim.Assembly -->
<g id="edge3" class="edge">
<title>CombArg.OneDim.Induction&#45;&gt;CombArg.OneDim.Assembly</title>
<path fill="none" stroke="black" d="M385.64,-289.38C349.86,-278.85 302.46,-264.91 264.62,-253.78"/>
<polygon fill="black" stroke="black" points="265.75,-250.47 255.17,-251 263.77,-257.18 265.75,-250.47"/>
</g>
<!-- CombArg.SupReduction -->
<g id="node7" class="node">
<title>CombArg.SupReduction</title>
<ellipse fill="#e0e0e0" stroke="black" cx="200.76" cy="-90" rx="103.04" ry="18"/>
<text xml:space="preserve" text-anchor="middle" x="200.76" y="-84.95" font-family="Times,serif" font-size="14.00">CombArg.SupReduction</text>
</g>
<!-- CombArg.OneDim&#45;&gt;CombArg.SupReduction -->
<g id="edge9" class="edge">
<title>CombArg.OneDim&#45;&gt;CombArg.SupReduction</title>
<path fill="none" stroke="black" d="M200.76,-143.7C200.76,-136.41 200.76,-127.73 200.76,-119.54"/>
<polygon fill="black" stroke="black" points="204.26,-119.62 200.76,-109.62 197.26,-119.62 204.26,-119.62"/>
</g>
<!-- CombArg -->
<g id="node6" class="node">
<title>CombArg</title>
<polygon fill="none" stroke="black" points="260.44,-23.56 200.76,-36 141.08,-23.56 141.14,-3.44 260.38,-3.44 260.44,-23.56"/>
<text xml:space="preserve" text-anchor="middle" x="200.76" y="-12.95" font-family="Times,serif" font-size="14.00">CombArg</text>
</g>
<!-- CombArg.SupReduction&#45;&gt;CombArg -->
<g id="edge5" class="edge">
<title>CombArg.SupReduction&#45;&gt;CombArg</title>
<path fill="none" stroke="black" d="M200.76,-71.7C200.76,-64.41 200.76,-55.73 200.76,-47.54"/>
<polygon fill="black" stroke="black" points="204.26,-47.62 200.76,-37.62 197.26,-47.62 204.26,-47.62"/>
</g>
<!-- «Mathlib.Tactics» -->
<g id="node8" class="node">
<title>«Mathlib.Tactics»</title>
<ellipse fill="none" stroke="black" cx="618.76" cy="-522" rx="78.99" ry="18"/>
<text xml:space="preserve" text-anchor="middle" x="618.76" y="-516.95" font-family="Times,serif" font-size="14.00">«Mathlib.Tactics»</text>
</g>
<!-- CombArg.OneDim.SpacedIntervals -->
<g id="node9" class="node">
<title>CombArg.OneDim.SpacedIntervals</title>
<ellipse fill="#e0e0e0" stroke="black" cx="197.76" cy="-522" rx="144.5" ry="18"/>
<text xml:space="preserve" text-anchor="middle" x="197.76" y="-516.95" font-family="Times,serif" font-size="14.00">CombArg.OneDim.SpacedIntervals</text>
</g>
<!-- CombArg.OneDim.InitialCover -->
<g id="node11" class="node">
<title>CombArg.OneDim.InitialCover</title>
<ellipse fill="#e0e0e0" stroke="black" cx="318.76" cy="-450" rx="130.17" ry="18"/>
<text xml:space="preserve" text-anchor="middle" x="318.76" y="-444.95" font-family="Times,serif" font-size="14.00">CombArg.OneDim.InitialCover</text>
</g>
<!-- CombArg.OneDim.SpacedIntervals&#45;&gt;CombArg.OneDim.InitialCover -->
<g id="edge6" class="edge">
<title>CombArg.OneDim.SpacedIntervals&#45;&gt;CombArg.OneDim.InitialCover</title>
<path fill="none" stroke="black" d="M227.05,-504.05C242.95,-494.85 262.82,-483.36 279.99,-473.43"/>
<polygon fill="black" stroke="black" points="281.53,-476.58 288.43,-468.55 278.02,-470.52 281.53,-476.58"/>
</g>
<!-- CombArg.Witness -->
<g id="node10" class="node">
<title>CombArg.Witness</title>
<ellipse fill="#e0e0e0" stroke="black" cx="440.76" cy="-522" rx="80.52" ry="18"/>
<text xml:space="preserve" text-anchor="middle" x="440.76" y="-516.95" font-family="Times,serif" font-size="14.00">CombArg.Witness</text>
</g>
<!-- CombArg.Witness&#45;&gt;CombArg.OneDim.InitialCover -->
<g id="edge7" class="edge">
<title>CombArg.Witness&#45;&gt;CombArg.OneDim.InitialCover</title>
<path fill="none" stroke="black" d="M412.46,-504.76C396.19,-495.43 375.51,-483.56 357.72,-473.35"/>
<polygon fill="black" stroke="black" points="359.9,-470.57 349.49,-468.63 356.42,-476.64 359.9,-470.57"/>
</g>
<!-- CombArg.OneDim.InitialCover&#45;&gt;CombArg.OneDim.CoverConstruction -->
<g id="edge8" class="edge">
<title>CombArg.OneDim.InitialCover&#45;&gt;CombArg.OneDim.CoverConstruction</title>
<path fill="none" stroke="black" d="M280.13,-432.41C257.74,-422.8 229.32,-410.59 205.3,-400.28"/>
<polygon fill="black" stroke="black" points="206.92,-397.16 196.35,-396.43 204.16,-403.59 206.92,-397.16"/>
</g>
<!-- CombArg.OneDim.PartialRefinement -->
<g id="node12" class="node">
<title>CombArg.OneDim.PartialRefinement</title>
<ellipse fill="#e0e0e0" stroke="black" cx="482.76" cy="-378" rx="153.2" ry="18"/>
<text xml:space="preserve" text-anchor="middle" x="482.76" y="-372.95" font-family="Times,serif" font-size="14.00">CombArg.OneDim.PartialRefinement</text>
</g>
<!-- CombArg.OneDim.InitialCover&#45;&gt;CombArg.OneDim.PartialRefinement -->
<g id="edge11" class="edge">
<title>CombArg.OneDim.InitialCover&#45;&gt;CombArg.OneDim.PartialRefinement</title>
<path fill="none" stroke="black" d="M357.63,-432.41C380.15,-422.8 408.75,-410.59 432.92,-400.28"/>
<polygon fill="black" stroke="black" points="434.1,-403.57 441.93,-396.43 431.36,-397.14 434.1,-403.57"/>
</g>
<!-- CombArg.OneDim.PartialRefinement&#45;&gt;CombArg.OneDim.Induction -->
<g id="edge10" class="edge">
<title>CombArg.OneDim.PartialRefinement&#45;&gt;CombArg.OneDim.Induction</title>
<path fill="none" stroke="black" d="M471.88,-359.7C466.98,-351.9 461.08,-342.51 455.62,-333.83"/>
<polygon fill="black" stroke="black" points="458.6,-331.99 450.32,-325.39 452.68,-335.71 458.6,-331.99"/>
</g>
</g>
</svg>
